<svg width="360" height="360" viewBox="0 0 360 360" fill="none" xmlns="http://www.w3.org/2000/svg">
<path fill-rule="evenodd" clip-rule="evenodd" d="M0 0C49.7056 0 90 40.2943 90 90C40.2944 90 0 49.7057 0 0ZM180 0C130.294 0 90 40.2943 90 90C40.2944 90 0 130.294 0 180C0 229.705 40.2944 270 90 270C40.2944 270 0 310.295 0 360C49.7056 360 90 319.705 90 270C90 319.705 130.294 360 180 360C229.705 360 270 319.705 270 270C270 319.705 310.295 360 360 360C360 310.295 319.705 270 270 270C319.705 270 360 229.705 360 180C360 130.294 319.705 90 270 90C319.705 90 360 49.7057 360 0C310.295 0 270 40.2943 270 90C270 40.2943 229.705 0 180 0ZM270 270C270 220.295 229.705 180 180 180C180 229.705 220.295 270 270 270ZM180 180C229.705 180 270 139.706 270 90C270 139.706 310.295 180 360 180C310.295 180 270 220.295 270 270C220.295 270 180 310.295 180 360C180 310.295 139.706 270 90 270C139.706 270 180 229.705 180 180ZM180 180C130.294 180 90 220.295 90 270C90 220.295 49.7056 180 0 180C49.7056 180 90 139.706 90 90C90 139.706 130.294 180 180 180ZM180 180C180 130.294 220.295 90 270 90C220.295 90 180 49.7057 180 0C180 49.7057 139.706 90 90 90C139.706 90 180 130.294 180 180Z" fill="#9E7645" fill-opacity="0.04"/>
</svg>
