<svg width="95" height="99" viewBox="0 0 95 99" fill="none" xmlns="http://www.w3.org/2000/svg">
<path d="M40.5471 3.72629C44.4238 -0.0240469 50.5762 -0.0240469 54.4529 3.72629L56.9654 6.15682C59.1823 8.30143 62.2648 9.303 65.3188 8.87102L68.7801 8.38145C74.1208 7.62604 79.0982 11.2424 80.0302 16.5551L80.6341 19.9982C81.1671 23.0363 83.0722 25.6585 85.7969 27.1041L88.8848 28.7425C93.6496 31.2706 95.5508 37.1219 93.182 41.9678L91.6468 45.1083C90.2922 47.8794 90.2922 51.1206 91.6468 53.8917L93.182 57.0322C95.5508 61.8781 93.6496 67.7294 88.8848 70.2575L85.7968 71.8959C83.0722 73.3415 81.1671 75.9637 80.6341 79.0018L80.0302 82.4449C79.0982 87.7576 74.1208 91.374 68.7801 90.6185L65.3188 90.129C62.2648 89.697 59.1823 90.6986 56.9654 92.8432L54.4529 95.2737C50.5762 99.024 44.4238 99.024 40.5471 95.2737L38.0346 92.8432C35.8177 90.6986 32.7352 89.697 29.6812 90.129L26.2199 90.6185C20.8792 91.374 15.9018 87.7576 14.9698 82.4449L14.3659 79.0018C13.8329 75.9637 11.9279 73.3415 9.20315 71.8959L6.1152 70.2575C1.35044 67.7294 -0.550775 61.8781 1.81804 57.0322L3.35323 53.8917C4.70782 51.1206 4.70782 47.8794 3.35323 45.1083L1.81804 41.9678C-0.550776 37.1219 1.35044 31.2706 6.1152 28.7425L9.20315 27.1041C11.9278 25.6585 13.8329 23.0363 14.3659 19.9982L14.9698 16.5551C15.9018 11.2424 20.8792 7.62604 26.2199 8.38145L29.6812 8.87102C32.7352 9.303 35.8177 8.30143 38.0346 6.15682L40.5471 3.72629Z" fill="#F2E9DE"/>
</svg>
