<svg width="21" height="20" viewBox="0 0 21 20" fill="none" xmlns="http://www.w3.org/2000/svg">
<path d="M6.99891 11.375V3.9375C6.99891 3.5894 7.13719 3.25556 7.38333 3.00942C7.62947 2.76328 7.96331 2.625 8.31141 2.625C8.6595 2.625 8.99334 2.76328 9.23948 3.00942C9.48562 3.25556 9.62391 3.5894 9.62391 3.9375V10.5M9.62391 10.0625V8.3125C9.62391 7.9644 9.76219 7.63056 10.0083 7.38442C10.2545 7.13828 10.5883 7 10.9364 7C11.2845 7 11.6183 7.13828 11.8645 7.38442C12.1106 7.63056 12.2489 7.9644 12.2489 8.3125V10.5M12.2489 9.1875C12.2489 8.8394 12.3872 8.50556 12.6333 8.25942C12.8795 8.01328 13.2133 7.875 13.5614 7.875C13.9095 7.875 14.2433 8.01328 14.4895 8.25942C14.7356 8.50556 14.8739 8.8394 14.8739 9.1875V10.5" stroke="#9E7645" stroke-width="1.5" stroke-linecap="round" stroke-linejoin="round"/>
<path d="M14.8747 10.0621C14.8747 9.71404 15.013 9.3802 15.2591 9.13406C15.5052 8.88792 15.8391 8.74964 16.1872 8.74964C16.5353 8.74964 16.8691 8.88792 17.1152 9.13406C17.3614 9.3802 17.4997 9.71404 17.4997 10.0621V13.9996C17.4997 15.392 16.9465 16.7274 15.962 17.712C14.9774 18.6965 13.6421 19.2496 12.2497 19.2496H10.4997H10.6817C9.81221 19.2498 8.95633 19.034 8.19088 18.6216C7.42543 18.2093 6.77437 17.6133 6.29617 16.8871L6.12467 16.6246C5.85167 16.2055 4.89355 14.5351 3.24942 11.6126C3.08181 11.3147 3.03704 10.9632 3.12463 10.6328C3.21222 10.3024 3.42525 10.0192 3.71842 9.84339C4.03069 9.65602 4.39661 9.57837 4.75806 9.62275C5.11951 9.66714 5.45577 9.83103 5.71342 10.0884L6.99967 11.3746M2.22305 4.89439C2.89454 4.40349 3.61605 3.98495 4.37555 3.64577M12.2497 3.02539C13.3891 3.33116 14.4761 3.80665 15.474 4.43589" stroke="#9E7645" stroke-width="1.5" stroke-linecap="round" stroke-linejoin="round"/>
</svg>
