<svg width="15" height="15" viewBox="0 0 15 15" fill="none" xmlns="http://www.w3.org/2000/svg">
<g clip-path="url(#clip0_29_330)">
<path d="M14.5001 3.12512V11.8751C14.5001 12.3717 14.1217 12.7501 13.6251 12.7501H12.7501V4.80906L7.50012 8.58031L2.25012 4.80906V12.7501H1.37512C0.87856 12.7501 0.500122 12.3717 0.500122 11.8751V3.12512C0.500122 2.87662 0.593747 2.65787 0.75081 2.50299C0.832565 2.42109 0.929978 2.35649 1.03724 2.31304C1.1445 2.2696 1.25941 2.2482 1.37512 2.25012H1.66693L7.50012 6.47943L13.3333 2.25012H13.6251C13.8736 2.25012 14.0924 2.34374 14.2494 2.50299C14.4065 2.65787 14.5001 2.87662 14.5001 3.12512Z" fill="#090909"/>
</g>
<defs>
<clipPath id="clip0_29_330">
<rect width="14" height="14" fill="white" transform="translate(0.5 0.5)"/>
</clipPath>
</defs>
</svg>
